<svg xmlns="http://www.w3.org/2000/svg" xml:space="preserve" width="800" height="800" viewBox="0 0 512 512">
<path d="M107.259 141.792a9.01 9.01 0 0 0-9.018 9.018c0 4.976 4.031 9.007 9.018 9.007a9.006 9.006 0 0 0 9.007-9.007c0-4.987-4.031-9.018-9.007-9.018M142.619 186.817l-3.299-3.299a9.54 9.54 0 0 0-13.505 0c-3.724 3.724-3.724 9.771 0 13.505l3.31 3.299c1.857 1.867 4.307 2.801 6.747 2.801s4.891-.934 6.747-2.801c3.735-3.723 3.735-9.77 0-13.505M169.599 183.518c-3.724-3.734-9.771-3.734-13.506 0l-3.299 3.31a9.53 9.53 0 0 0 0 13.495 9.5 9.5 0 0 0 6.747 2.801 9.52 9.52 0 0 0 6.758-2.801l3.299-3.299c3.735-3.735 3.735-9.782.001-13.506M188.165 141.792a9.01 9.01 0 0 0-9.018 9.018c0 4.976 4.031 9.007 9.018 9.007a9.006 9.006 0 0 0 9.007-9.007c0-4.987-4.031-9.018-9.007-9.018M353.965 241.487a231 231 0 0 0-9.51-8.404 242 242 0 0 0-4.976-4.049c-8.413-6.659-17.415-12.873-26.91-18.569a10.6 10.6 0 0 0-4.997-1.502 10.66 10.66 0 0 0-7.527 2.684 10.64 10.64 0 0 0-2.946 4.403c-1.639 4.657.154 9.974 4.554 12.61 13.919 8.349 26.65 17.876 37.832 28.327 13.622 12.731 24.666 26.64 31.912 40.219a10.56 10.56 0 0 0 3.98 4.147 10.66 10.66 0 0 0 5.388 1.465c1.687 0 3.395-.403 4.986-1.252 5.177-2.758 7.129-9.188 4.36-14.354-5.813-10.89-13.376-21.564-22.583-31.884a213 213 0 0 0-13.563-13.841"/>
<path d="M441.078 25.897c-39.116 0-70.933 31.817-70.933 70.923v92.905c-10.015-7.914-20.699-15.277-31.934-22.014-15.797-9.474-32.135-17.378-48.728-23.584a56.7 56.7 0 0 0 5.931-25.271c0-31.276-25.451-56.727-56.727-56.727a55 55 0 0 0-4.212.17c-18.396-30.247-50.988-48.739-86.773-48.739-35.806 0-68.387 18.492-86.783 48.728a59 59 0 0 0-4.191-.159C25.451 62.127 0 87.579 0 118.855c0 31.287 25.451 56.727 56.727 56.727 3.024 0 5.984-.233 8.859-.69.032.042.053.096.085.138.965 26.173 14.556 50.532 36.241 65.151 4.52 21.749 15.394 44.474 31.658 66.191v121.634c0 11.416 4.445 22.141 12.519 30.226a43 43 0 0 0 17.198 10.471c5.517 17.229 21.685 29.738 40.718 29.738 23.563 0 42.744-19.181 42.744-42.745v-61.639a283 283 0 0 0 21.229 8.349c-6.726 7.066-10.874 16.603-10.874 27.107s4.085 20.37 11.522 27.807c5.326 5.315 11.904 8.912 19.065 10.524 1.613 7.172 5.209 13.76 10.535 19.075 7.426 7.426 17.304 11.511 27.807 11.511h68.811c30.671 0 55.624-24.942 55.624-55.507l1.209-264.222a40.5 40.5 0 0 0 19.553 5.018c22.481 0 40.771-18.29 40.771-40.771V96.82c-.001-39.106-31.818-70.923-70.923-70.923m-419.86 92.958c0-17.643 12.943-32.326 29.833-35.053a102 102 0 0 0-4.965 31.361c0 13.495 2.695 26.767 7.861 39.084-18.279-1.422-32.729-16.752-32.729-35.392M244.34 83.802c16.9 2.716 29.854 17.399 29.854 35.053a35.5 35.5 0 0 1-9.05 23.712 35.55 35.55 0 0 1-23.712 11.681 98 98 0 0 0 3.713-10.386 100.7 100.7 0 0 0 4.148-28.698c.002-10.642-1.695-21.262-4.953-31.362m-96.639-49.025c28.698 0 54.797 15.033 69.236 39.54-14.906 23.818-40.952 38.395-69.225 38.395-28.327 0-54.383-14.577-69.278-38.373 14.45-24.518 40.548-39.562 69.267-39.562M86.836 172.283q.032-.43.032-.859c0-2.387-.806-4.7-2.281-6.578a80 80 0 0 1-5.294-7.564 79.9 79.9 0 0 1-11.988-42.119c0-5.994.647-11.861 1.92-17.569a102.76 102.76 0 0 0 78.487 36.336c30.597 0 59.104-13.548 78.444-36.368a80.8 80.8 0 0 1 1.92 17.601c0 7.724-1.093 15.352-3.268 22.682l-.011.011c-2.886 9.803-7.596 18.884-14.004 26.99a10.65 10.65 0 0 0-2.281 6.578c0 .318.021.626.042.944-.17 33.419-27.404 60.557-60.854 60.557-10.874 0-21.537-2.896-30.841-8.381-18.448-10.875-29.938-30.873-30.023-52.261m74.424 271.086c-.053-.053-.106-.095-.159-.149a21.34 21.34 0 0 1-6.313-15.214v-96.989a262 262 0 0 0 6.472 6.387zm127.682 2.61a18 18 0 0 1-5.326-3.671 17.97 17.97 0 0 1-5.294-12.795c0-9.973 8.116-18.089 18.089-18.089h4.106c8.477 1.75 25.802 3.809 26.12 3.809h.17a71 71 0 0 0 4.191 4.583h-4.965c-17.199.001-31.723 10.833-37.091 26.163m140.306-3.162c0 18.969-15.436 34.395-34.406 34.395h-68.811a17.97 17.97 0 0 1-12.805-5.305c-3.416-3.406-5.294-7.946-5.294-12.784 0-.191 0-.382.011-.583.308-9.814 8.254-17.505 18.089-17.505l55.974-.021c5.856 0 10.609-4.753 10.609-10.609 0-5.867-4.753-10.609-10.609-10.609-28.061 0-50.892-22.831-50.892-50.892 0-5.856-4.753-10.609-10.609-10.609-5.867 0-10.609 4.753-10.609 10.609a71.8 71.8 0 0 0 3.215 21.303h-10.397c-18.524-4.01-37.461-10.588-55.964-19.489V328.95c0-5.867-4.753-10.609-10.609-10.609a10.6 10.6 0 0 0-10.609 10.609v126.748c0 11.861-9.665 21.526-21.526 21.526-11.872 0-21.526-9.665-21.526-21.526V309.46c0-5.867-4.753-10.609-10.609-10.609-5.071 0-9.294 3.543-10.355 8.286a214 214 0 0 1-8.944-10.811c-11.458-14.789-20.051-29.992-25.409-44.803a82.3 82.3 0 0 0 20.539 2.62c44.262 0 80.46-35.233 82.02-79.123.032-.042.053-.085.085-.127a56.826 56.826 0 0 0 46.002-13.144c17.516 6.047 34.809 14.153 51.497 24.157 16.922 10.153 32.464 21.802 46.214 34.639 34.544 32.273 55.56 70.403 56.876 102.835zm61.534-299.869c0 10.779-8.774 19.553-19.553 19.553s-19.542-8.774-19.542-19.553l-.011.011V96.82c0-5.856-4.742-10.609-10.609-10.609-5.856 0-10.609 4.753-10.609 10.609v160.199c-9.888-16.763-23.054-33.281-39.095-48.781V96.82c0-27.404 22.301-49.704 49.715-49.704 27.404 0 49.704 22.301 49.704 49.704z"/>
<path d="M107.259 141.792a9.01 9.01 0 0 0-9.018 9.018c0 4.976 4.031 9.007 9.018 9.007a9.006 9.006 0 0 0 9.007-9.007c0-4.987-4.031-9.018-9.007-9.018M142.619 186.817l-3.299-3.299a9.54 9.54 0 0 0-13.505 0c-3.724 3.724-3.724 9.771 0 13.505l3.31 3.299c1.857 1.867 4.307 2.801 6.747 2.801s4.891-.934 6.747-2.801c3.735-3.723 3.735-9.77 0-13.505M169.599 183.518c-3.724-3.734-9.771-3.734-13.506 0l-3.299 3.31a9.53 9.53 0 0 0 0 13.495 9.5 9.5 0 0 0 6.747 2.801 9.52 9.52 0 0 0 6.758-2.801l3.299-3.299c3.735-3.735 3.735-9.782.001-13.506M188.165 141.792a9.01 9.01 0 0 0-9.018 9.018c0 4.976 4.031 9.007 9.018 9.007a9.006 9.006 0 0 0 9.007-9.007c0-4.987-4.031-9.018-9.007-9.018M390.111 287.212c-8.456-15.84-20.614-31.223-36.146-45.726-12.275-11.469-26.205-21.908-41.397-31.021-5.029-3.013-11.543-1.379-14.556 3.639-3.013 5.029-1.39 11.543 3.639 14.556 13.919 8.349 26.65 17.876 37.832 28.327 13.622 12.731 24.666 26.64 31.912 40.219a10.61 10.61 0 0 0 9.368 5.612c1.687 0 3.395-.403 4.986-1.252 5.179-2.758 7.131-9.187 4.362-14.354"/>
<path d="M107.259 141.792a9.01 9.01 0 0 0-9.018 9.018c0 4.976 4.031 9.007 9.018 9.007a9.006 9.006 0 0 0 9.007-9.007c0-4.987-4.031-9.018-9.007-9.018M188.165 141.792a9.01 9.01 0 0 0-9.018 9.018c0 4.976 4.031 9.007 9.018 9.007a9.006 9.006 0 0 0 9.007-9.007c0-4.987-4.031-9.018-9.007-9.018M142.619 186.817l-3.299-3.299a9.54 9.54 0 0 0-13.505 0c-3.724 3.724-3.724 9.771 0 13.505l3.31 3.299c1.857 1.867 4.307 2.801 6.747 2.801s4.891-.934 6.747-2.801c3.735-3.723 3.735-9.77 0-13.505M169.599 183.518c-3.724-3.734-9.771-3.734-13.506 0l-3.299 3.31a9.53 9.53 0 0 0 0 13.495 9.5 9.5 0 0 0 6.747 2.801 9.52 9.52 0 0 0 6.758-2.801l3.299-3.299c3.735-3.735 3.735-9.782.001-13.506M390.111 287.212c-8.456-15.84-20.614-31.223-36.146-45.726-12.275-11.469-26.205-21.908-41.397-31.021-5.029-3.013-11.543-1.379-14.556 3.639-3.013 5.029-1.39 11.543 3.639 14.556 13.919 8.349 26.65 17.876 37.832 28.327 13.622 12.731 24.666 26.64 31.912 40.219a10.61 10.61 0 0 0 9.368 5.612c1.687 0 3.395-.403 4.986-1.252 5.179-2.758 7.131-9.187 4.362-14.354"/>
</svg>